<?xml version="1.0" encoding="UTF-8" standalone="no"?>
<!-- Created with Inkscape (http://www.inkscape.org/) -->

<svg
   width="192"
   height="192"
   viewBox="0 0 192 192"
   version="1.1"
   id="svg5"
   inkscape:version="1.2 (1:1.2.1+202207142221+cd75a1ee6d)"
   sodipodi:docname="coronavirus192.svg"
   xml:space="preserve"
   inkscape:export-filename="coronavirus512.png"
   inkscape:export-xdpi="96"
   inkscape:export-ydpi="96"
   xmlns:inkscape="http://www.inkscape.org/namespaces/inkscape"
   xmlns:sodipodi="http://sodipodi.sourceforge.net/DTD/sodipodi-0.dtd"
   xmlns="http://www.w3.org/2000/svg"
   xmlns:svg="http://www.w3.org/2000/svg"><sodipodi:namedview
     id="namedview7"
     pagecolor="#505050"
     bordercolor="#ffffff"
     borderopacity="1"
     inkscape:showpageshadow="0"
     inkscape:pageopacity="0"
     inkscape:pagecheckerboard="1"
     inkscape:deskcolor="#505050"
     inkscape:document-units="px"
     showgrid="false"
     inkscape:zoom="5.2812038"
     inkscape:cx="85.207847"
     inkscape:cy="150.53386"
     inkscape:window-width="1366"
     inkscape:window-height="703"
     inkscape:window-x="0"
     inkscape:window-y="0"
     inkscape:window-maximized="1"
     inkscape:current-layer="layer1"
     inkscape:lockguides="false" /><defs
     id="defs2" /><g
     inkscape:label="Camada 1"
     inkscape:groupmode="layer"
     id="layer1"
     style="display:inline"><rect
       style="fill:#000000;stroke:none;stroke-width:2.00001;stroke-linecap:round;stroke-linejoin:round"
       id="rect385"
       width="192"
       height="192"
       x="0"
       y="0" /><rect
       style="fill:#666666;stroke:#1a1a1a;stroke-width:3.57802;stroke-linecap:round;stroke-linejoin:round;stroke-dasharray:none"
       id="rect953"
       width="8.5403805"
       height="19.022465"
       x="92.508049"
       y="23.092712" /><rect
       style="fill:#666666;stroke:#1a1a1a;stroke-width:3.57823;stroke-linecap:round;stroke-linejoin:round;stroke-dasharray:none"
       id="rect961"
       width="8.5824146"
       height="18.931259"
       x="-136.69258"
       y="-48.32547"
       transform="matrix(-0.82475171,-0.56549502,-0.553568,0.83280398,0,0)" /><rect
       style="fill:#666666;stroke:#1a1a1a;stroke-width:3.57823;stroke-linecap:round;stroke-linejoin:round;stroke-dasharray:none"
       id="rect969"
       width="8.5824146"
       height="18.931259"
       x="133.06325"
       y="-96.88958"
       transform="matrix(0.82475171,0.56549502,0.553568,-0.83280398,0,0)" /><rect
       style="fill:#666666;stroke:#1a1a1a;stroke-width:3.57823;stroke-linecap:round;stroke-linejoin:round;stroke-dasharray:none"
       id="rect981"
       width="8.6206675"
       height="18.847483"
       x="-9.8873739"
       y="-208.32457"
       transform="matrix(0.62710088,-0.77893805,-0.76931223,-0.63887298,0,0)" /><rect
       style="fill:#666666;stroke:#1a1a1a;stroke-width:3.57817;stroke-linecap:round;stroke-linejoin:round;stroke-dasharray:none"
       id="rect985"
       width="8.6431684"
       height="18.797855"
       x="126.59809"
       y="-111.77772"
       transform="matrix(0.47564515,0.87963725,-0.87333424,0.48712144,0,0)" /><rect
       style="fill:#666666;stroke:#1a1a1a;stroke-width:3.57823;stroke-linecap:round;stroke-linejoin:round;stroke-dasharray:none"
       id="rect957"
       width="8.5824156"
       height="18.931259"
       x="26.142532"
       y="61.055"
       transform="matrix(0.82475173,-0.56549499,0.553568,0.83280398,0,0)" /><path
       id="circle1099"
       style="fill:#808080;stroke:#001a00;stroke-width:1.5;stroke-linecap:round;stroke-linejoin:round;stroke-opacity:1;stroke-dasharray:none"
       d="M 150.37793,96 A 54.37794,53.946488 0 0 1 95.999996,149.94648 54.37794,53.946488 0 0 1 41.622056,96 54.37794,53.946488 0 0 1 95.999996,42.053513 54.37794,53.946488 0 0 1 150.37793,96 Z" /><path
       id="path61"
       style="fill:none;stroke:#001a00;stroke-width:1.5;stroke-linecap:round;stroke-linejoin:round;stroke-opacity:1;stroke-dasharray:none"
       d="M 150.37793,96 A 54.37794,53.946488 0 0 1 95.999996,149.94648 54.37794,53.946488 0 0 1 41.622056,96 54.37794,53.946488 0 0 1 95.999996,42.053513 54.37794,53.946488 0 0 1 150.37793,96 Z" /><path
       id="path845-3"
       style="fill:none;stroke:#001a00;stroke-width:1.5;stroke-linecap:round;stroke-linejoin:round;stroke-opacity:1;stroke-dasharray:none"
       d="M 109.36132,96.250744 A 13.361327,54.343676 0 0 1 95.999996,150.59442 13.361327,54.343676 0 0 1 82.638667,96.250744 13.361327,54.343676 0 0 1 95.999996,41.907064 13.361327,54.343676 0 0 1 109.36132,96.250744 Z" /><path
       id="ellipse847"
       style="fill:none;stroke:#001a00;stroke-width:1.5;stroke-linecap:round;stroke-linejoin:round;stroke-opacity:1;stroke-dasharray:none"
       d="M 131.29205,96 A 35.292055,54.703703 0 0 1 95.999996,150.7037 35.292055,54.703703 0 0 1 60.70794,96 35.292055,54.703703 0 0 1 95.999996,41.296297 35.292055,54.703703 0 0 1 131.29205,96 Z" /><path
       id="ellipse849"
       style="fill:none;stroke:#001a00;stroke-width:1.5;stroke-linecap:round;stroke-linejoin:round;stroke-opacity:1;stroke-dasharray:none"
       d="M 95.999996,131.01204 A 55.141207,35.012037 0 0 1 40.858789,96 55.141207,35.012037 0 0 1 95.999996,60.98796 55.141207,35.012037 0 0 1 151.14121,96 55.141207,35.012037 0 0 1 95.999996,131.01204 Z" /><path
       id="ellipse905"
       style="fill:none;stroke:#001a00;stroke-width:1.5;stroke-linecap:round;stroke-linejoin:round;stroke-opacity:1;stroke-dasharray:none"
       d="M 95.999996,109.25531 A 55.141207,13.255314 0 0 1 40.858789,96 55.141207,13.255314 0 0 1 95.999996,82.744684 55.141207,13.255314 0 0 1 151.14121,96 55.141207,13.255314 0 0 1 95.999996,109.25531 Z" /><rect
       style="fill:#666666;stroke:#1a1a1a;stroke-width:3.57802;stroke-linecap:round;stroke-linejoin:round;stroke-dasharray:none"
       id="rect965"
       width="8.5403805"
       height="19.022465"
       x="92.508049"
       y="-169.65732"
       transform="scale(1,-1)" /><rect
       style="fill:#666666;stroke:#1a1a1a;stroke-width:3.57823;stroke-linecap:round;stroke-linejoin:round;stroke-dasharray:none"
       id="rect973"
       width="8.5824156"
       height="18.931259"
       x="-29.352991"
       y="-204.18452"
       transform="matrix(-0.82475173,0.56549499,-0.553568,-0.83280398,0,0)" /><rect
       style="fill:#666666;stroke:#1a1a1a;stroke-width:3.57802;stroke-linecap:round;stroke-linejoin:round;stroke-dasharray:none"
       id="rect977"
       width="8.672822"
       height="18.732052"
       x="-88.966499"
       y="-177.4774"
       transform="matrix(0.09007539,-0.99593495,-0.99567634,-0.0928904,0,0)" /><rect
       style="fill:#666666;stroke:#1a1a1a;stroke-width:3.57802;stroke-linecap:round;stroke-linejoin:round;stroke-dasharray:none"
       id="rect989"
       width="8.672822"
       height="18.732052"
       x="-106.87115"
       y="14.489824"
       transform="matrix(-0.09007539,-0.99593495,0.99567634,-0.0928904,0,0)" /><rect
       style="fill:#666666;stroke:#1a1a1a;stroke-width:3.57823;stroke-linecap:round;stroke-linejoin:round;stroke-dasharray:none"
       id="rect993"
       width="8.6206675"
       height="18.847483"
       x="-136.11543"
       y="-56.770535"
       transform="matrix(-0.62710088,-0.77893805,0.76931227,-0.63887294,0,0)" /><rect
       style="fill:#666666;stroke:#1a1a1a;stroke-width:3.57817;stroke-linecap:round;stroke-linejoin:round;stroke-dasharray:none"
       id="rect997"
       width="8.6431684"
       height="18.797855"
       x="33.352451"
       y="58.143562"
       transform="matrix(-0.47564515,0.87963725,0.87333424,0.48712144,0,0)" /><ellipse
       style="fill:#999999;stroke:#1a1a1a;stroke-width:3.57802;stroke-linecap:round;stroke-linejoin:round;stroke-dasharray:none"
       id="path1003"
       cx="107.83485"
       cy="95.92466"
       rx="9.938508"
       ry="11.102442" /><ellipse
       style="fill:#999999;stroke:#1a1a1a;stroke-width:3.57802;stroke-linecap:round;stroke-linejoin:round;stroke-dasharray:none"
       id="path1007"
       cx="98.519394"
       cy="128.55173"
       rx="9.7835236"
       ry="8.6914816" /><ellipse
       style="fill:#999999;stroke:#1a1a1a;stroke-width:3.57802;stroke-linecap:round;stroke-linejoin:round;stroke-dasharray:none"
       id="path1011"
       cx="125.11996"
       cy="118.3534"
       rx="4.6768074"
       ry="5.7181215" /><rect
       style="fill:#666666;stroke:#1a1a1a;stroke-width:3.57815;stroke-linecap:round;stroke-linejoin:round;stroke-dasharray:none"
       id="rect1575"
       width="5.7542987"
       height="12.586943"
       x="0.12078671"
       y="-189.77777"
       transform="matrix(0.62805088,-0.77817227,-0.77009566,-0.63792843,0,0)" /><rect
       style="fill:#666666;stroke:#1a1a1a;stroke-width:3.57817;stroke-linecap:round;stroke-linejoin:round;stroke-dasharray:none"
       id="rect1579"
       width="8.6431684"
       height="18.797855"
       x="44.991947"
       y="90.740143"
       transform="matrix(-0.47564515,0.87963725,0.87333424,0.48712144,0,0)" /><rect
       style="fill:#666666;stroke:#1a1a1a;stroke-width:3.57815;stroke-linecap:round;stroke-linejoin:round;stroke-dasharray:none"
       id="rect1583"
       width="5.7542987"
       height="12.586943"
       x="-142.54199"
       y="-29.600349"
       transform="matrix(-0.62805088,-0.77817227,0.77009566,-0.63792843,0,0)" /><rect
       style="fill:#666666;stroke:#1a1a1a;stroke-width:3.57823;stroke-linecap:round;stroke-linejoin:round;stroke-dasharray:none"
       id="rect1587"
       width="8.5824156"
       height="18.931259"
       x="17.137114"
       y="84.740532"
       transform="matrix(0.82475173,-0.56549499,0.553568,0.83280398,0,0)" /><rect
       style="fill:#666666;stroke:#1a1a1a;stroke-width:3.57823;stroke-linecap:round;stroke-linejoin:round;stroke-dasharray:none"
       id="rect1591"
       width="8.5824156"
       height="18.931259"
       x="-144.27734"
       y="-22.853777"
       transform="matrix(-0.82475173,-0.56549499,-0.553568,0.83280398,0,0)" /><ellipse
       style="fill:#999999;stroke:#1a1a1a;stroke-width:3.57823;stroke-linecap:round;stroke-linejoin:round;stroke-dasharray:none"
       id="ellipse1589"
       cx="-140.52277"
       cy="-27.159405"
       rx="11.498539"
       ry="5.3658018"
       transform="matrix(-0.82475173,-0.56549499,-0.553568,0.83280398,0,0)" /><ellipse
       style="fill:#999999;stroke:#1a1a1a;stroke-width:3.57815;stroke-linecap:round;stroke-linejoin:round;stroke-dasharray:none"
       id="ellipse1593"
       cx="-117.20424"
       cy="-46.209"
       rx="7.7094874"
       ry="3.5675933"
       transform="matrix(-0.62805088,-0.77817227,0.77009566,-0.63792843,0,0)" /><rect
       style="fill:#666666;stroke:#1a1a1a;stroke-width:3.57815;stroke-linecap:round;stroke-linejoin:round;stroke-dasharray:none"
       id="rect1595"
       width="5.7542987"
       height="12.586943"
       x="-120.13795"
       y="-41.83036"
       transform="matrix(-0.62805088,-0.77817227,0.77009566,-0.63792843,0,0)" /><ellipse
       style="fill:#999999;stroke:#1a1a1a;stroke-width:3.57802;stroke-linecap:round;stroke-linejoin:round;stroke-dasharray:none"
       id="ellipse1597"
       cx="93.456375"
       cy="61.058273"
       rx="5.3885412"
       ry="6.5451298" /><rect
       style="fill:#666666;stroke:#1a1a1a;stroke-width:3.57802;stroke-linecap:round;stroke-linejoin:round;stroke-dasharray:none"
       id="rect1601"
       width="8.672822"
       height="18.732052"
       x="-157.31779"
       y="-87.603348"
       transform="matrix(-0.51808125,-0.85533141,-0.85679253,0.51566128,0,0)" /><ellipse
       style="fill:#999999;stroke:#1a1a1a;stroke-width:3.57823;stroke-linecap:round;stroke-linejoin:round;stroke-dasharray:none"
       id="ellipse959"
       cx="-132.72855"
       cy="-51.588295"
       rx="11.498538"
       ry="5.3658018"
       transform="matrix(-0.82475171,-0.56549502,-0.553568,0.83280398,0,0)" /><ellipse
       style="fill:#999999;stroke:#1a1a1a;stroke-width:3.57817;stroke-linecap:round;stroke-linejoin:round;stroke-dasharray:none"
       id="ellipse983"
       cx="130.92894"
       cy="-116.64069"
       rx="11.579935"
       ry="5.3279905"
       transform="matrix(0.47564515,0.87963725,-0.87333424,0.48712144,0,0)" /><ellipse
       style="fill:#999999;stroke:#1a1a1a;stroke-width:3.57802;stroke-linecap:round;stroke-linejoin:round;stroke-dasharray:none"
       id="path845"
       cx="96.862175"
       cy="20.225315"
       rx="11.442221"
       ry="5.3916526" /><ellipse
       style="fill:#999999;stroke:#1a1a1a;stroke-width:3.57823;stroke-linecap:round;stroke-linejoin:round;stroke-dasharray:none"
       id="ellipse955"
       cx="30.106539"
       cy="57.792164"
       rx="11.498539"
       ry="5.3658018"
       transform="matrix(0.82475173,-0.56549499,0.553568,0.83280398,0,0)" /><ellipse
       style="fill:#999999;stroke:#1a1a1a;stroke-width:3.57823;stroke-linecap:round;stroke-linejoin:round;stroke-dasharray:none"
       id="ellipse1585"
       cx="21.310574"
       cy="82.520485"
       rx="11.498539"
       ry="5.3658018"
       transform="matrix(0.82475173,-0.56549499,0.553568,0.83280398,0,0)" /><ellipse
       style="fill:#999999;stroke:#1a1a1a;stroke-width:3.57802;stroke-linecap:round;stroke-linejoin:round;stroke-dasharray:none"
       id="ellipse1599"
       cx="-152.63434"
       cy="-90.776596"
       rx="11.619663"
       ry="5.309339"
       transform="matrix(-0.51808125,-0.85533141,-0.85679253,0.51566128,0,0)" /><ellipse
       style="fill:#999999;stroke:#1a1a1a;stroke-width:3.57802;stroke-linecap:round;stroke-linejoin:round;stroke-dasharray:none"
       id="ellipse975"
       cx="-84.753845"
       cy="-181.75291"
       rx="11.619663"
       ry="5.309339"
       transform="matrix(0.09007539,-0.99593495,-0.99567634,-0.0928904,0,0)" /><ellipse
       style="fill:#999999;stroke:#1a1a1a;stroke-width:3.57815;stroke-linecap:round;stroke-linejoin:round;stroke-dasharray:none"
       id="ellipse1573"
       cx="2.7742655"
       cy="-191.46324"
       rx="7.7094874"
       ry="3.5675933"
       transform="matrix(0.62805088,-0.77817227,-0.77009566,-0.63792843,0,0)" /><ellipse
       style="fill:#999999;stroke:#1a1a1a;stroke-width:3.57817;stroke-linecap:round;stroke-linejoin:round;stroke-dasharray:none"
       id="ellipse1577"
       cx="48.587448"
       cy="87.74942"
       rx="11.579935"
       ry="5.3279905"
       transform="matrix(-0.47564515,0.87963725,0.87333424,0.48712144,0,0)" /><ellipse
       style="fill:#999999;stroke:#1a1a1a;stroke-width:3.57817;stroke-linecap:round;stroke-linejoin:round;stroke-dasharray:none"
       id="ellipse995"
       cx="36.662849"
       cy="53.583641"
       rx="11.579935"
       ry="5.3279905"
       transform="matrix(-0.47564515,0.87963725,0.87333424,0.48712144,0,0)" /><ellipse
       style="fill:#999999;stroke:#1a1a1a;stroke-width:3.57802;stroke-linecap:round;stroke-linejoin:round;stroke-dasharray:none"
       id="ellipse987"
       cx="-102.86755"
       cy="12.455168"
       rx="11.619663"
       ry="5.309339"
       transform="matrix(-0.09007539,-0.99593495,0.99567634,-0.0928904,0,0)" /><ellipse
       style="fill:#999999;stroke:#1a1a1a;stroke-width:3.57815;stroke-linecap:round;stroke-linejoin:round;stroke-dasharray:none"
       id="ellipse1581"
       cx="-139.88852"
       cy="-31.285807"
       rx="7.7094874"
       ry="3.5675933"
       transform="matrix(-0.62805088,-0.77817227,0.77009566,-0.63792843,0,0)" /><ellipse
       style="fill:#999999;stroke:#1a1a1a;stroke-width:3.57823;stroke-linecap:round;stroke-linejoin:round;stroke-dasharray:none"
       id="ellipse979"
       cx="-6.2550626"
       cy="-211.60326"
       rx="11.549788"
       ry="5.3420558"
       transform="matrix(0.62710088,-0.77893805,-0.76931223,-0.63887298,0,0)" /><ellipse
       style="fill:#999999;stroke:#1a1a1a;stroke-width:3.57823;stroke-linecap:round;stroke-linejoin:round;stroke-dasharray:none"
       id="ellipse991"
       cx="-130.94769"
       cy="-60.74736"
       rx="11.549788"
       ry="5.3420563"
       transform="matrix(-0.62710088,-0.77893805,0.76931227,-0.63887294,0,0)" /><ellipse
       style="fill:#999999;stroke:#1a1a1a;stroke-width:3.57823;stroke-linecap:round;stroke-linejoin:round;stroke-dasharray:none"
       id="ellipse967"
       cx="136.81781"
       cy="-101.19518"
       rx="11.498538"
       ry="5.3658018"
       transform="matrix(0.82475171,0.56549502,0.553568,-0.83280398,0,0)" /><ellipse
       style="fill:#999999;stroke:#1a1a1a;stroke-width:3.57802;stroke-linecap:round;stroke-linejoin:round;stroke-dasharray:none"
       id="ellipse963"
       cx="96.862175"
       cy="-172.52467"
       rx="11.442221"
       ry="5.3916526"
       transform="scale(1,-1)" /><ellipse
       style="fill:#999999;stroke:#1a1a1a;stroke-width:3.57823;stroke-linecap:round;stroke-linejoin:round;stroke-dasharray:none"
       id="ellipse971"
       cx="-25.598431"
       cy="-208.4902"
       rx="11.498539"
       ry="5.3658018"
       transform="matrix(-0.82475173,0.56549499,-0.553568,-0.83280398,0,0)" /></g></svg>
