<?xml version="1.0" encoding="UTF-8" standalone="no"?>
<!-- Created with Inkscape (http://www.inkscape.org/) -->

<svg
   width="512"
   height="512"
   viewBox="0 0 512 512"
   version="1.1"
   id="svg5"
   xml:space="preserve"
   xmlns="http://www.w3.org/2000/svg"
   xmlns:svg="http://www.w3.org/2000/svg"><defs
     id="defs2" /><g
     id="layer1"
     style="display:inline"><g
       id="g4795"><g
         id="g989"><rect
           style="fill:#000000;stroke:none;stroke-width:2.00001;stroke-linecap:round;stroke-linejoin:round"
           id="rect385"
           width="512"
           height="512"
           x="0"
           y="0" /><rect
           style="fill:#666666;stroke:#1a1a1a;stroke-width:3.57802;stroke-linecap:round;stroke-linejoin:round;stroke-dasharray:none"
           id="rect965"
           width="22.774349"
           height="50.726574"
           x="246.68813"
           y="-442.41949"
           transform="scale(1,-1)" /><rect
           style="fill:#666666;stroke:#1a1a1a;stroke-width:3.57802;stroke-linecap:round;stroke-linejoin:round;stroke-dasharray:none"
           id="rect953"
           width="22.774349"
           height="50.726574"
           x="244.68813"
           y="67.580566" /><rect
           style="fill:#666666;stroke:#1a1a1a;stroke-width:3.57823;stroke-linecap:round;stroke-linejoin:round;stroke-dasharray:none"
           id="rect961"
           width="22.88644"
           height="50.483356"
           x="-364.51355"
           y="-128.86792"
           transform="matrix(-0.82475171,-0.56549502,-0.55356801,0.83280397,0,0)" /><rect
           style="fill:#666666;stroke:#1a1a1a;stroke-width:3.57823;stroke-linecap:round;stroke-linejoin:round;stroke-dasharray:none"
           id="rect969"
           width="22.88644"
           height="50.483356"
           x="354.83533"
           y="-258.37222"
           transform="matrix(0.82475171,0.56549502,0.55356801,-0.83280397,0,0)" /><rect
           style="fill:#666666;stroke:#1a1a1a;stroke-width:3.57823;stroke-linecap:round;stroke-linejoin:round;stroke-dasharray:none"
           id="rect981"
           width="22.988445"
           height="50.259953"
           x="-26.366329"
           y="-555.53217"
           transform="matrix(0.62710089,-0.77893804,-0.76931224,-0.63887298,0,0)" /><rect
           style="fill:#666666;stroke:#1a1a1a;stroke-width:3.57817;stroke-linecap:round;stroke-linejoin:round;stroke-dasharray:none"
           id="rect985"
           width="23.048449"
           height="50.127617"
           x="337.59491"
           y="-298.07391"
           transform="matrix(0.47564515,0.87963725,-0.87333424,0.48712145,0,0)" /><rect
           style="fill:#666666;stroke:#1a1a1a;stroke-width:3.57823;stroke-linecap:round;stroke-linejoin:round;stroke-dasharray:none"
           id="rect957"
           width="22.88644"
           height="50.483356"
           x="69.713417"
           y="162.81334"
           transform="matrix(0.82475173,-0.56549499,0.55356801,0.83280397,0,0)" /><path
           id="circle1099"
           style="fill:#808080;stroke:#001a00;stroke-width:5.721;stroke-linecap:round;stroke-linejoin:round;stroke-opacity:1"
           d="M 401.00782,256 A 145.00784,143.8573 0 0 1 255.99999,399.85729 145.00784,143.8573 0 0 1 110.99215,256 145.00784,143.8573 0 0 1 255.99999,112.1427 145.00784,143.8573 0 0 1 401.00782,256 Z" /><ellipse
           style="fill:#999999;stroke:#1a1a1a;stroke-width:3.57802;stroke-linecap:round;stroke-linejoin:round;stroke-dasharray:none"
           id="ellipse963"
           cx="258.29913"
           cy="-450.0658"
           rx="30.512589"
           ry="14.37774"
           transform="scale(1,-1)" /><path
           id="path61"
           style="fill:none;stroke:#001a00;stroke-width:0.91536;stroke-linecap:round;stroke-linejoin:round;stroke-dasharray:none;stroke-opacity:1"
           d="M 401.00782,256 A 145.00784,143.8573 0 0 1 255.99999,399.85729 145.00784,143.8573 0 0 1 110.99215,256 145.00784,143.8573 0 0 1 255.99999,112.1427 145.00784,143.8573 0 0 1 401.00782,256 Z" /><path
           id="path845-3"
           style="fill:none;stroke:#001a00;stroke-width:4.5;stroke-linecap:round;stroke-linejoin:round;stroke-dasharray:none;stroke-opacity:1"
           d="m 291.6302,255.78947 a 35.630205,144.03729 0 0 1 -35.63021,144.03728 35.630205,144.03729 0 0 1 -35.63021,-144.03728 35.630205,144.03729 0 0 1 35.63021,-144.0373 35.630205,144.03729 0 0 1 35.63021,144.0373 z" /><path
           id="ellipse847"
           style="fill:none;stroke:#001a00;stroke-width:4.5;stroke-linecap:round;stroke-linejoin:round;stroke-dasharray:none;stroke-opacity:1"
           d="M 350.11214,256.17678 A 94.112147,143.74056 0 0 1 255.99999,399.91734 94.112147,143.74056 0 0 1 161.88784,256.17678 94.112147,143.74056 0 0 1 255.99999,112.43622 94.112147,143.74056 0 0 1 350.11214,256.17678 Z" /><path
           id="ellipse849"
           style="fill:none;stroke:#001a00;stroke-width:4.5;stroke-linecap:round;stroke-linejoin:round;stroke-dasharray:none;stroke-opacity:1"
           d="M 255.28608,349.36543 A 142.86697,93.365432 0 0 1 112.41911,256 142.86697,93.365432 0 0 1 255.28608,162.63456 142.86697,93.365432 0 0 1 398.15305,256 142.86697,93.365432 0 0 1 255.28608,349.36543 Z" /><path
           id="ellipse905"
           style="fill:none;stroke:#001a00;stroke-width:4.5;stroke-linecap:round;stroke-linejoin:round;stroke-dasharray:none;stroke-opacity:1"
           d="M 255.99999,291.3475 A 147.04322,35.347505 0 0 1 108.95677,256 147.04322,35.347505 0 0 1 255.99999,220.65249 147.04322,35.347505 0 0 1 403.04322,256 147.04322,35.347505 0 0 1 255.99999,291.3475 Z" /><rect
           style="fill:#666666;stroke:#1a1a1a;stroke-width:3.57823;stroke-linecap:round;stroke-linejoin:round;stroke-dasharray:none"
           id="rect973"
           width="22.88644"
           height="50.483356"
           x="-78.274643"
           y="-544.49207"
           transform="matrix(-0.82475173,0.56549499,-0.55356801,-0.83280397,0,0)" /><rect
           style="fill:#666666;stroke:#1a1a1a;stroke-width:3.57802;stroke-linecap:round;stroke-linejoin:round;stroke-dasharray:none"
           id="rect977"
           width="23.127525"
           height="49.952137"
           x="-237.24399"
           y="-473.27307"
           transform="matrix(0.09007538,-0.99593495,-0.99567634,-0.09289039,0,0)" /><rect
           style="fill:#666666;stroke:#1a1a1a;stroke-width:3.57802;stroke-linecap:round;stroke-linejoin:round;stroke-dasharray:none"
           id="rect989"
           width="23.127525"
           height="49.952137"
           x="-284.98975"
           y="38.63953"
           transform="matrix(-0.0900754,-0.99593495,0.99567634,-0.09289039,0,0)" /><rect
           style="fill:#666666;stroke:#1a1a1a;stroke-width:3.57823;stroke-linecap:round;stroke-linejoin:round;stroke-dasharray:none"
           id="rect993"
           width="22.988445"
           height="50.259956"
           x="-362.97449"
           y="-151.38809"
           transform="matrix(-0.62710089,-0.77893804,0.76931227,-0.63887294,0,0)" /><rect
           style="fill:#666666;stroke:#1a1a1a;stroke-width:3.57817;stroke-linecap:round;stroke-linejoin:round;stroke-dasharray:none"
           id="rect997"
           width="23.048449"
           height="50.127617"
           x="88.939865"
           y="155.0495"
           transform="matrix(-0.47564515,0.87963725,0.87333424,0.48712145,0,0)" /><ellipse
           style="fill:#999999;stroke:#1a1a1a;stroke-width:3.57802;stroke-linecap:round;stroke-linejoin:round;stroke-dasharray:none"
           id="path1003"
           cx="287.5596"
           cy="255.79909"
           rx="26.502687"
           ry="29.606512" /><ellipse
           style="fill:#999999;stroke:#1a1a1a;stroke-width:3.57802;stroke-linecap:round;stroke-linejoin:round;stroke-dasharray:none"
           id="path1007"
           cx="262.71838"
           cy="342.8046"
           rx="26.089396"
           ry="23.177284" /><ellipse
           style="fill:#999999;stroke:#1a1a1a;stroke-width:3.57802;stroke-linecap:round;stroke-linejoin:round;stroke-dasharray:none"
           id="path1011"
           cx="333.65323"
           cy="315.60907"
           rx="12.471487"
           ry="15.248323" /><rect
           style="fill:#666666;stroke:#1a1a1a;stroke-width:3.57815;stroke-linecap:round;stroke-linejoin:round;stroke-dasharray:none"
           id="rect1575"
           width="15.344797"
           height="33.565182"
           x="0.3220979"
           y="-506.07407"
           transform="matrix(0.62805089,-0.77817227,-0.77009565,-0.63792844,0,0)" /><rect
           style="fill:#666666;stroke:#1a1a1a;stroke-width:3.57817;stroke-linecap:round;stroke-linejoin:round;stroke-dasharray:none"
           id="rect1579"
           width="23.048449"
           height="50.127617"
           x="119.97852"
           y="241.97371"
           transform="matrix(-0.47564515,0.87963725,0.87333424,0.48712145,0,0)" /><rect
           style="fill:#666666;stroke:#1a1a1a;stroke-width:3.57815;stroke-linecap:round;stroke-linejoin:round;stroke-dasharray:none"
           id="rect1583"
           width="15.344797"
           height="33.565182"
           x="-380.112"
           y="-78.934265"
           transform="matrix(-0.62805089,-0.77817227,0.77009565,-0.63792844,0,0)" /><rect
           style="fill:#666666;stroke:#1a1a1a;stroke-width:3.57823;stroke-linecap:round;stroke-linejoin:round;stroke-dasharray:none"
           id="rect1587"
           width="22.88644"
           height="50.483356"
           x="45.698971"
           y="225.97475"
           transform="matrix(0.82475173,-0.56549499,0.55356801,0.83280397,0,0)" /><rect
           style="fill:#666666;stroke:#1a1a1a;stroke-width:3.57823;stroke-linecap:round;stroke-linejoin:round;stroke-dasharray:none"
           id="rect1591"
           width="22.88644"
           height="50.483356"
           x="-384.73959"
           y="-60.943405"
           transform="matrix(-0.82475173,-0.56549499,-0.55356801,0.83280397,0,0)" /><ellipse
           style="fill:#999999;stroke:#1a1a1a;stroke-width:3.57823;stroke-linecap:round;stroke-linejoin:round;stroke-dasharray:none"
           id="ellipse1589"
           cx="-374.72739"
           cy="-72.425079"
           rx="30.662769"
           ry="14.308805"
           transform="matrix(-0.82475173,-0.56549499,-0.55356801,0.83280397,0,0)" /><ellipse
           style="fill:#999999;stroke:#1a1a1a;stroke-width:3.57815;stroke-linecap:round;stroke-linejoin:round;stroke-dasharray:none"
           id="ellipse1593"
           cx="-312.54465"
           cy="-123.224"
           rx="20.558634"
           ry="9.5135822"
           transform="matrix(-0.62805089,-0.77817227,0.77009565,-0.63792844,0,0)" /><rect
           style="fill:#666666;stroke:#1a1a1a;stroke-width:3.57815;stroke-linecap:round;stroke-linejoin:round;stroke-dasharray:none"
           id="rect1595"
           width="15.344797"
           height="33.565182"
           x="-320.36789"
           y="-111.54763"
           transform="matrix(-0.62805089,-0.77817227,0.77009565,-0.63792844,0,0)" /><ellipse
           style="fill:#999999;stroke:#1a1a1a;stroke-width:3.57802;stroke-linecap:round;stroke-linejoin:round;stroke-dasharray:none"
           id="ellipse1597"
           cx="249.217"
           cy="162.82207"
           rx="14.369443"
           ry="17.45368" /><rect
           style="fill:#666666;stroke:#1a1a1a;stroke-width:3.57802;stroke-linecap:round;stroke-linejoin:round;stroke-dasharray:none"
           id="rect1601"
           width="23.127525"
           height="49.952137"
           x="-419.5141"
           y="-233.60892"
           transform="matrix(-0.51808125,-0.85533141,-0.85679254,0.51566127,0,0)" /><ellipse
           style="fill:#999999;stroke:#1a1a1a;stroke-width:3.57823;stroke-linecap:round;stroke-linejoin:round;stroke-dasharray:none"
           id="ellipse959"
           cx="-353.94281"
           cy="-137.56879"
           rx="30.662769"
           ry="14.308805"
           transform="matrix(-0.82475171,-0.56549502,-0.55356801,0.83280397,0,0)" /><ellipse
           style="fill:#999999;stroke:#1a1a1a;stroke-width:3.57817;stroke-linecap:round;stroke-linejoin:round;stroke-dasharray:none"
           id="ellipse983"
           cx="349.14383"
           cy="-311.04184"
           rx="30.879826"
           ry="14.207975"
           transform="matrix(0.47564515,0.87963725,-0.87333424,0.48712145,0,0)" /><ellipse
           style="fill:#999999;stroke:#1a1a1a;stroke-width:3.57802;stroke-linecap:round;stroke-linejoin:round;stroke-dasharray:none"
           id="path845"
           cx="256.29913"
           cy="59.934174"
           rx="30.512589"
           ry="14.37774" /><ellipse
           style="fill:#999999;stroke:#1a1a1a;stroke-width:3.57823;stroke-linecap:round;stroke-linejoin:round;stroke-dasharray:none"
           id="ellipse955"
           cx="80.284103"
           cy="154.11244"
           rx="30.662769"
           ry="14.308805"
           transform="matrix(0.82475173,-0.56549499,0.55356801,0.83280397,0,0)" /><ellipse
           style="fill:#999999;stroke:#1a1a1a;stroke-width:3.57823;stroke-linecap:round;stroke-linejoin:round;stroke-dasharray:none"
           id="ellipse1585"
           cx="56.828197"
           cy="220.05463"
           rx="30.662769"
           ry="14.308805"
           transform="matrix(0.82475173,-0.56549499,0.55356801,0.83280397,0,0)" /><ellipse
           style="fill:#999999;stroke:#1a1a1a;stroke-width:3.57802;stroke-linecap:round;stroke-linejoin:round;stroke-dasharray:none"
           id="ellipse1599"
           cx="-407.0249"
           cy="-242.07092"
           rx="30.985767"
           ry="14.158237"
           transform="matrix(-0.51808125,-0.85533141,-0.85679254,0.51566127,0,0)" /><ellipse
           style="fill:#999999;stroke:#1a1a1a;stroke-width:3.57802;stroke-linecap:round;stroke-linejoin:round;stroke-dasharray:none"
           id="ellipse975"
           cx="-226.01025"
           cy="-484.67444"
           rx="30.985767"
           ry="14.158237"
           transform="matrix(0.09007538,-0.99593495,-0.99567634,-0.09289039,0,0)" /><ellipse
           style="fill:#999999;stroke:#1a1a1a;stroke-width:3.57815;stroke-linecap:round;stroke-linejoin:round;stroke-dasharray:none"
           id="ellipse1573"
           cx="7.3980417"
           cy="-510.56866"
           rx="20.558634"
           ry="9.5135822"
           transform="matrix(0.62805089,-0.77817227,-0.77009565,-0.63792844,0,0)" /><ellipse
           style="fill:#999999;stroke:#1a1a1a;stroke-width:3.57817;stroke-linecap:round;stroke-linejoin:round;stroke-dasharray:none"
           id="ellipse1577"
           cx="129.56653"
           cy="233.99846"
           rx="30.879826"
           ry="14.207975"
           transform="matrix(-0.47564515,0.87963725,0.87333424,0.48712145,0,0)" /><ellipse
           style="fill:#999999;stroke:#1a1a1a;stroke-width:3.57817;stroke-linecap:round;stroke-linejoin:round;stroke-dasharray:none"
           id="ellipse995"
           cx="97.767601"
           cy="142.88971"
           rx="30.879826"
           ry="14.207975"
           transform="matrix(-0.47564515,0.87963725,0.87333424,0.48712145,0,0)" /><ellipse
           style="fill:#999999;stroke:#1a1a1a;stroke-width:3.57802;stroke-linecap:round;stroke-linejoin:round;stroke-dasharray:none"
           id="ellipse987"
           cx="-274.31345"
           cy="33.213779"
           rx="30.985767"
           ry="14.158237"
           transform="matrix(-0.0900754,-0.99593495,0.99567634,-0.09289039,0,0)" /><ellipse
           style="fill:#999999;stroke:#1a1a1a;stroke-width:3.57815;stroke-linecap:round;stroke-linejoin:round;stroke-dasharray:none"
           id="ellipse1581"
           cx="-373.03607"
           cy="-83.428818"
           rx="20.558634"
           ry="9.5135822"
           transform="matrix(-0.62805089,-0.77817227,0.77009565,-0.63792844,0,0)" /><ellipse
           style="fill:#999999;stroke:#1a1a1a;stroke-width:3.57823;stroke-linecap:round;stroke-linejoin:round;stroke-dasharray:none"
           id="ellipse979"
           cx="-16.680166"
           cy="-564.27533"
           rx="30.799433"
           ry="14.245482"
           transform="matrix(0.62710089,-0.77893804,-0.76931224,-0.63887298,0,0)" /><ellipse
           style="fill:#999999;stroke:#1a1a1a;stroke-width:3.57823;stroke-linecap:round;stroke-linejoin:round;stroke-dasharray:none"
           id="ellipse991"
           cx="-349.19385"
           cy="-161.99297"
           rx="30.799433"
           ry="14.245483"
           transform="matrix(-0.62710089,-0.77893804,0.76931227,-0.63887294,0,0)" /><ellipse
           style="fill:#999999;stroke:#1a1a1a;stroke-width:3.57823;stroke-linecap:round;stroke-linejoin:round;stroke-dasharray:none"
           id="ellipse967"
           cx="364.8475"
           cy="-269.85382"
           rx="30.662769"
           ry="14.308805"
           transform="matrix(0.82475171,0.56549502,0.55356801,-0.83280397,0,0)" /><ellipse
           style="fill:#999999;stroke:#1a1a1a;stroke-width:3.57823;stroke-linecap:round;stroke-linejoin:round;stroke-dasharray:none"
           id="ellipse971"
           cx="-68.262482"
           cy="-555.97388"
           rx="30.662769"
           ry="14.308805"
           transform="matrix(-0.82475173,0.56549499,-0.55356801,-0.83280397,0,0)" /></g></g></g></svg>
