<svg version="1.1" viewBox="0 0 144 144" xmlns="http://www.w3.org/2000/svg">
 <g stroke="#000" stroke-linecap="round" stroke-linejoin="round">
  <rect transform="scale(1,-1)" x="71" y="-118" width="5.6" height="13" fill="#666" stroke-width="1.5"/>
  <ellipse transform="scale(1,-1)" cx="74" cy="-119" rx="7.7" ry="3.6" fill="#999" stroke-width="1.5"/>
  <rect transform="matrix(.81 -.58 .54 .84 0 0)" x="20" y="52" width="5.7" height="12" fill="#666" stroke-width="1.5"/>
  <ellipse transform="matrix(.81 -.58 .54 .84 0 0)" cx="23" cy="55" rx="7.8" ry="3.6" fill="#999" stroke-width="1.5"/>
 </g>
 <g fill="#666" stroke="#000" stroke-linecap="round" stroke-linejoin="round">
  <rect x="71" y="24" width="5.6" height="13" stroke-width="1.5"/>
  <rect transform="matrix(-.81 -.58 -.54 .84 0 0)" x="-102" y="-31" width="5.7" height="12" stroke-width="1.5"/>
  <rect transform="matrix(.81 .58 .54 -.84 0 0)" x="100" y="-64" width="5.7" height="12" stroke-width="1.5"/>
  <rect transform="matrix(.62 -.79 -.76 -.65 0 0)" x="-6.5" y="-151" width="5.8" height="12" stroke-width="1.5"/>
 </g>
 <g stroke-linecap="round" stroke-linejoin="round">
  <ellipse transform="matrix(.47 .88 -.87 .5 0 0)" cx="99" cy="-83" rx="7.9" ry="3.5" fill="#999" stroke="#000" stroke-width="1.5"/>
  <rect transform="matrix(.47 .88 -.87 .5 0 0)" x="96" y="-79" width="5.8" height="12" fill="#666" stroke="#000" stroke-width="1.5"/>
  <path d="m110 72a36 36 0 0 1-36 36 36 36 0 0 1-36-36 36 36 0 0 1 36-36 36 36 0 0 1 36 36z" fill="#808080" stroke="#001a00" stroke-width="2"/>
 </g>
 <g fill="none" stroke="#001a00" stroke-linecap="round" stroke-linejoin="round">
  <g stroke-width="2">
   <path d="m110 72a36 36 0 0 1-36 36 36 36 0 0 1-36-36 36 36 0 0 1 36-36 36 36 0 0 1 36 36z"/>
   <path d="m82 72a8.6 36 0 0 1-8.6 36 8.6 36 0 0 1-8.6-36 8.6 36 0 0 1 8.6-36 8.6 36 0 0 1 8.6 36z"/>
   <path d="m97 72a23 36 0 0 1-23 36 23 36 0 0 1-23-36 23 36 0 0 1 23-36 23 36 0 0 1 23 36z"/>
  </g>
  <path d="m74 93a35 23 0 0 1-35-23 35 23 0 0 1 35-23 35 23 0 0 1 35 23 35 23 0 0 1-35 23z" stroke-width="2"/>
  <path d="m73 80a34 8.7 0 0 1-34-8.7 34 8.7 0 0 1 34-8.7 34 8.7 0 0 1 34 8.7 34 8.7 0 0 1-34 8.7z" stroke-width="2"/>
 </g>
 <g fill="#666" stroke="#000" stroke-linecap="round" stroke-linejoin="round">
  <rect transform="matrix(-.81 .58 -.54 -.84 0 0)" x="-23" y="-149" width="5.7" height="12" stroke-width="1.5"/>
  <rect transform="matrix(.087 -1 -1 -.095 0 0)" x="-67" y="-128" width="5.9" height="12" stroke-width="1.5"/>
  <rect transform="matrix(-.087 -1 1 -.095 0 0)" x="-81" y="18" width="5.9" height="12" stroke-width="1.5"/>
  <rect transform="matrix(-.47 .88 .87 .5 0 0)" x="25" y="51" width="5.8" height="12" stroke-width="1.5"/>
 </g>
 <g transform="matrix(.65 0 0 .66 8.6 7.1)" fill="#999" stroke="#000" stroke-linecap="round" stroke-linejoin="round">
  <g stroke-width="2.3">
   <ellipse cx="110" cy="98" rx="10" ry="11"/>
   <ellipse cx="101" cy="131" rx="10" ry="8.9"/>
   <ellipse cx="128" cy="121" rx="4.8" ry="5.8"/>
  </g>
  <ellipse transform="matrix(.63 -.78 -.77 -.64 0 0)" cx="3.1" cy="-198" rx="7.9" ry="3.6" stroke-width="2.3"/>
 </g>
 <g fill="#666" stroke="#000" stroke-linecap="round" stroke-linejoin="round">
  <rect transform="matrix(.62 -.79 -.76 -.65 0 0)" x=".2" y="-138" width="3.9" height="8.5" stroke-width="1.5"/>
  <rect transform="matrix(-.47 .88 .87 .5 0 0)" x="32" y="71" width="5.8" height="12" stroke-width="1.5"/>
  <rect transform="matrix(-.62 -.79 .76 -.65 0 0)" x="-107" y="-17" width="3.9" height="8.5" stroke-width="1.5"/>
  <rect transform="matrix(.81 -.58 .54 .84 0 0)" x="14" y="68" width="5.7" height="12" stroke-width="1.5"/>
  <rect transform="matrix(-.81 -.58 -.54 .84 0 0)" x="-107" y="-14" width="5.7" height="12" stroke-width="1.5"/>
  <rect transform="matrix(-.62 -.79 .76 -.65 0 0)" x="-92" y="-26" width="3.9" height="8.5" stroke-width="1.5"/>
 </g>
 <ellipse cx="70" cy="48" rx="3.6" ry="4.4" fill="#999" stroke="#000" stroke-linecap="round" stroke-linejoin="round" stroke-width="1.5"/>
 <rect transform="matrix(-.51 -.86 -.85 .53 0 0)" x="-117" y="-62" width="5.9" height="12" fill="#666" stroke="#000" stroke-linecap="round" stroke-linejoin="round" stroke-width="1.5"/>
 <g fill="#999" stroke="#000" stroke-linecap="round" stroke-linejoin="round">
  <ellipse transform="matrix(-.087 -1 1 -.095 0 0)" cx="-77" cy="16" rx="8" ry="3.5" stroke-width="1.5"/>
  <ellipse transform="matrix(-.47 .88 .87 .5 0 0)" cx="27" cy="51" rx="7.9" ry="3.5" stroke-width="1.5"/>
  <ellipse transform="matrix(.81 .58 .54 -.84 0 0)" cx="103" cy="-64" rx="7.8" ry="3.6" stroke-width="1.5"/>
  <ellipse transform="matrix(-.81 .58 -.54 -.84 0 0)" cx="-21" cy="-149" rx="7.8" ry="3.6" stroke-width="1.5"/>
  <ellipse transform="matrix(-.47 .88 .87 .5 0 0)" cx="35" cy="71" rx="7.9" ry="3.5" stroke-width="1.5"/>
  <ellipse transform="matrix(.81 -.58 .54 .84 0 0)" cx="17" cy="68" rx="7.8" ry="3.6" stroke-width="1.5"/>
  <ellipse transform="matrix(-.81 -.58 -.54 .84 0 0)" cx="-105" cy="-14" rx="7.8" ry="3.6" stroke-width="1.5"/>
  <ellipse transform="matrix(.087 -1 -1 -.095 0 0)" cx="-64" cy="-126" rx="8" ry="3.5" stroke-width="1.5"/>
  <ellipse transform="matrix(.62 -.79 -.76 -.65 0 0)" cx="-3.4" cy="-152" rx="7.9" ry="3.6" stroke-width="1.5"/>
  <ellipse transform="matrix(-.51 -.86 -.85 .53 0 0)" cx="-113" cy="-62" rx="7.9" ry="3.5" stroke-width="1.5"/>
  <ellipse transform="matrix(-.81 -.58 -.54 .84 0 0)" cx="-99" cy="-31" rx="7.8" ry="3.6" stroke-width="1.5"/>
  <ellipse cx="74" cy="23" rx="7.7" ry="3.6" stroke-width="1.5"/>
  <ellipse transform="matrix(-.62 -.79 .76 -.65 0 0)" cx="-90" cy="-26" rx="5.2" ry="2.4" stroke-width="1.5"/>
 </g>
 <ellipse transform="matrix(-.62 -.79 .76 -.65 0 0)" cx="-105" cy="-18" rx="5.2" ry="2.4" fill="#999" stroke="#000" stroke-linecap="round" stroke-linejoin="round" stroke-width="1.5"/>
 <rect transform="matrix(-.62 -.79 .76 -.65 0 0)" x="-102" y="-34" width="5.8" height="12" fill="#666" stroke="#000" stroke-linecap="round" stroke-linejoin="round" stroke-width="1.5"/>
 <ellipse transform="matrix(-.62 -.79 .76 -.65 0 0)" cx="-99" cy="-33" rx="7.9" ry="3.6" fill="#999" stroke="#000" stroke-linecap="round" stroke-linejoin="round" stroke-width="1.5"/>
</svg>
